<svg xmlns="http://www.w3.org/2000/svg" width="180" height="54" fill="none" viewBox="0 0 180 54"><rect width="72.83" height="54" x="107.104" fill="#fff" rx="10"/><path fill="#fff" d="M3.9378 22.1657V39.048H0.400024V15.0752H3.17971L16.0041 32.3626V15.109H19.5735V39.048H16.6359L3.9378 22.1657Z"/><path fill="#fff" d="M31.4429 39.3857C30.1584 39.3857 28.9896 39.1493 27.9367 38.6766C26.8838 38.1814 25.9783 37.5174 25.2202 36.6845C24.4832 35.8516 23.9041 34.8837 23.4829 33.7808C23.0828 32.6778 22.8828 31.5073 22.8828 30.2692C22.8828 29.0312 23.0828 27.8607 23.4829 26.7577C23.9041 25.6322 24.4832 24.6531 25.2202 23.8202C25.9783 22.9648 26.8838 22.3008 27.9367 21.8281C28.9896 21.3329 30.1689 21.0853 31.4745 21.0853C32.7591 21.0853 33.9173 21.3329 34.9491 21.8281C36.002 22.3233 36.897 22.9874 37.634 23.8202C38.3711 24.6306 38.9291 25.5872 39.3082 26.6902C39.7083 27.7707 39.9083 28.9074 39.9083 30.1004C39.9083 30.3705 39.8978 30.6294 39.8767 30.877C39.8557 31.1021 39.8346 31.2934 39.8136 31.451H26.5785C26.6417 32.2388 26.8101 32.9479 27.0839 33.5782C27.3787 34.2084 27.7472 34.7599 28.1894 35.2326C28.6527 35.6828 29.1686 36.0317 29.7372 36.2793C30.3268 36.5269 30.9375 36.6507 31.5693 36.6507C32.0325 36.6507 32.4853 36.5945 32.9275 36.4819C33.3908 36.3469 33.812 36.1668 34.191 35.9417C34.5701 35.6941 34.907 35.4015 35.2018 35.0638C35.4966 34.7262 35.7283 34.3548 35.8967 33.9496L38.8659 34.8612C38.2974 36.1893 37.3497 37.281 36.0231 38.1364C34.7175 38.9692 33.1908 39.3857 31.4429 39.3857ZM36.4653 28.8849C36.4021 28.1421 36.2231 27.4555 35.9283 26.8253C35.6546 26.195 35.2966 25.666 34.8543 25.2383C34.4121 24.7881 33.8962 24.4392 33.3066 24.1916C32.7169 23.944 32.0957 23.8202 31.4429 23.8202C30.7901 23.8202 30.1689 23.944 29.5793 24.1916C29.0107 24.4392 28.5053 24.7881 28.0631 25.2383C27.6209 25.666 27.2629 26.195 26.9891 26.8253C26.7154 27.4555 26.5469 28.1421 26.4837 28.8849H36.4653Z"/><path fill="#fff" d="M50.1655 39.3857C48.8599 39.3857 47.6807 39.1381 46.6278 38.6428C45.5959 38.1476 44.7115 37.4836 43.9744 36.6507C43.2374 35.8179 42.6688 34.85 42.2687 33.747C41.8686 32.6215 41.6686 31.451 41.6686 30.2355C41.6686 29.02 41.8686 27.8607 42.2687 26.7577C42.6688 25.6322 43.2374 24.6531 43.9744 23.8202C44.7325 22.9874 45.6275 22.3233 46.6594 21.8281C47.7123 21.3329 48.881 21.0853 50.1655 21.0853C51.4501 21.0853 52.6083 21.3329 53.6401 21.8281C54.6931 22.3233 55.588 22.9874 56.3251 23.8202C57.0832 24.6531 57.6623 25.6322 58.0624 26.7577C58.4625 27.8607 58.6625 29.02 58.6625 30.2355C58.6625 31.451 58.4625 32.6215 58.0624 33.747C57.6623 34.85 57.0832 35.8179 56.3251 36.6507C55.588 37.4836 54.6931 38.1476 53.6401 38.6428C52.6083 39.1381 51.4501 39.3857 50.1655 39.3857ZM45.2379 30.2692C45.2379 31.1246 45.3643 31.9125 45.617 32.6328C45.8697 33.3531 46.2171 33.9833 46.6594 34.5236C47.1016 35.0413 47.6175 35.4577 48.2071 35.7729C48.8178 36.0655 49.4706 36.2118 50.1655 36.2118C50.8605 36.2118 51.5027 36.0655 52.0924 35.7729C52.7031 35.4577 53.2295 35.03 53.6717 34.4898C54.114 33.9496 54.4614 33.3193 54.7141 32.599C54.9668 31.8787 55.0932 31.0908 55.0932 30.2355C55.0932 29.4026 54.9668 28.626 54.7141 27.9057C54.4614 27.1629 54.114 26.5214 53.6717 25.9811C53.2295 25.4409 52.7031 25.0245 52.0924 24.7319C51.5027 24.4167 50.8605 24.2592 50.1655 24.2592C49.4917 24.2592 48.8494 24.4167 48.2387 24.7319C47.6491 25.047 47.1332 25.4747 46.6909 26.0149C46.2487 26.5551 45.8907 27.1967 45.617 27.9395C45.3643 28.6598 45.2379 29.4364 45.2379 30.2692Z"/><path fill="#fff" d="M70.6519 39.3857C69.3884 39.3857 68.2407 39.0705 67.2088 38.4403C66.1981 37.7875 65.3979 36.9209 64.8082 35.8404V39.048H61.7443V14.3999H65.2189V24.7319C65.8717 23.6064 66.6824 22.7172 67.6511 22.0645C68.6408 21.4117 69.799 21.0853 71.1257 21.0853C72.2207 21.0853 73.221 21.3441 74.1265 21.8619C75.032 22.3571 75.8006 23.0324 76.4323 23.8877C77.0851 24.7206 77.58 25.6998 77.9169 26.8253C78.2749 27.9282 78.4539 29.0875 78.4539 30.303C78.4539 31.5635 78.2539 32.7453 77.8538 33.8483C77.4537 34.9513 76.9062 35.9192 76.2112 36.752C75.5163 37.5624 74.6845 38.2039 73.7158 38.6766C72.7682 39.1493 71.7469 39.3857 70.6519 39.3857ZM69.7358 36.2118C70.4939 36.2118 71.1889 36.0542 71.8206 35.7391C72.4523 35.4015 72.9893 34.9625 73.4315 34.4223C73.8948 33.882 74.2528 33.263 74.5055 32.5652C74.7582 31.8449 74.8846 31.0908 74.8846 30.303C74.8846 29.5152 74.7582 28.7611 74.5055 28.0408C74.2739 27.298 73.9369 26.6564 73.4947 26.1162C73.0736 25.5535 72.5576 25.1033 71.9469 24.7656C71.3573 24.428 70.7045 24.2592 69.9885 24.2592C68.9146 24.2592 67.9564 24.6306 67.1141 25.3734C66.2928 26.1162 65.6611 27.0166 65.2189 28.0745V32.7341C65.3452 33.2518 65.5663 33.7245 65.8822 34.1522C66.1981 34.5573 66.5666 34.9175 66.9877 35.2326C67.4089 35.5478 67.8617 35.7954 68.346 35.9755C68.8303 36.133 69.2936 36.2118 69.7358 36.2118Z"/><path fill="#fff" d="M81.5788 39.048V21.3892H85.0534V39.048H81.5788ZM81.5788 18.4854V14.3999H85.0534V18.4854H81.5788Z"/><path fill="#fff" d="M95.2305 39.3857C93.9038 39.3857 92.5771 39.1606 91.2505 38.7104C89.9449 38.2377 88.8183 37.5736 87.8706 36.7183L89.2605 34.3548C90.2502 35.1201 91.2294 35.7053 92.1981 36.1105C93.1668 36.4932 94.1565 36.6845 95.1673 36.6845C96.1992 36.6845 97.0099 36.4707 97.5995 36.043C98.2102 35.6153 98.5155 35.0075 98.5155 34.2197C98.5155 33.4769 98.1786 32.9366 97.5048 32.599C96.8309 32.2613 95.778 31.8899 94.346 31.4848C93.3142 31.1921 92.4297 30.9108 91.6927 30.6407C90.9557 30.3705 90.3555 30.0554 89.8922 29.6952C89.4289 29.3351 89.092 28.9187 88.8814 28.446C88.6708 27.9733 88.5656 27.3993 88.5656 26.724C88.5656 25.8236 88.7235 25.0245 89.0394 24.3267C89.3763 23.6289 89.829 23.0436 90.3976 22.5709C90.9873 22.0757 91.6716 21.7043 92.4508 21.4567C93.2299 21.2091 94.0723 21.0853 94.9778 21.0853C96.2202 21.0853 97.3784 21.2879 98.4524 21.693C99.5263 22.0982 100.484 22.6835 101.327 23.4488L99.8422 25.6773C98.305 24.3717 96.673 23.7189 94.9462 23.7189C94.0617 23.7189 93.3142 23.9215 92.7035 24.3267C92.1139 24.7093 91.819 25.3284 91.819 26.1837C91.819 26.5439 91.8822 26.8478 92.0086 27.0954C92.1349 27.343 92.335 27.5568 92.6087 27.7369C92.9035 27.917 93.2721 28.0858 93.7143 28.2434C94.1776 28.3784 94.7461 28.536 95.42 28.7161C96.5361 29.0087 97.4942 29.3013 98.2944 29.5939C99.1157 29.8866 99.7896 30.2355 100.316 30.6407C100.842 31.0233 101.232 31.4848 101.485 32.025C101.737 32.5427 101.864 33.173 101.864 33.9158C101.864 35.604 101.264 36.9434 100.063 37.9338C98.8841 38.9017 97.2731 39.3857 95.2305 39.3857Z"/><path fill="#fff" fill-rule="evenodd" d="M4.33778 39.4481H0V14.6753H3.38099L15.6041 31.1522V14.7091H19.9735V39.4481H16.4362L4.33778 23.3631V39.4481ZM3.9378 22.1657L16.6359 39.048H19.5735V15.109H16.0041V32.3626L3.17971 15.0752H0.400024V39.048H3.9378V22.1657ZM27.7665 39.0387C26.6676 38.5219 25.719 37.8269 24.9244 36.9539L24.9206 36.9497C24.1498 36.0787 23.5465 35.0686 23.1092 33.9235L23.1068 33.9173C22.69 32.7682 22.4827 31.5513 22.4827 30.2693C22.4827 28.9874 22.69 27.7705 23.1069 26.6214L23.1082 26.6176C23.5452 25.45 24.1486 24.4276 24.9207 23.5552C25.716 22.6579 26.6669 21.9603 27.7697 21.4647C28.8812 20.9426 30.1185 20.6854 31.4745 20.6854C32.8109 20.6854 34.0289 20.9432 35.1206 21.4668C36.2191 21.9837 37.1577 22.679 37.9318 23.5532C38.7059 24.4049 39.2896 25.4075 39.6849 26.5558C40.1009 27.681 40.3083 28.8634 40.3083 30.1005C40.3083 30.381 40.2974 30.6512 40.2753 30.911L40.275 30.9144C40.2536 31.1427 40.232 31.3396 40.21 31.5041L40.1636 31.8511H27.024C27.1033 32.4254 27.2457 32.9455 27.4485 33.4138C27.725 34.0036 28.0676 34.5155 28.475 34.9525C28.9027 35.3667 29.3756 35.6853 29.8945 35.9117C30.4349 36.1382 30.9922 36.2508 31.5692 36.2508C31.9974 36.2508 32.4148 36.1992 32.8222 36.0961C33.2504 35.9707 33.6355 35.8055 33.9794 35.6022C34.3251 35.3755 34.6319 35.1085 34.9005 34.8008C35.1675 34.4951 35.3759 34.1605 35.5274 33.7961L35.6668 33.4607L39.4088 34.6096L39.2336 35.0187C38.6308 36.4269 37.627 37.5783 36.2398 38.4727L36.2382 38.4737C34.8603 39.3527 33.2569 39.7858 31.4429 39.7858C30.1083 39.7858 28.8829 39.5399 27.7729 39.0416L27.7665 39.0387ZM34.191 35.9417C33.812 36.1668 33.3908 36.3469 32.9275 36.4819C32.4853 36.5945 32.0325 36.6507 31.5693 36.6507C30.9375 36.6507 30.3268 36.5269 29.7372 36.2793C29.1686 36.0317 28.6527 35.6828 28.1894 35.2326C27.7472 34.7599 27.3787 34.2084 27.0839 33.5782C26.8573 33.0564 26.7028 32.4808 26.6205 31.8511C26.6033 31.7201 26.5894 31.5867 26.5785 31.451H39.8136C39.8346 31.2934 39.8557 31.1021 39.8767 30.877C39.8978 30.6294 39.9083 30.3705 39.9083 30.1004C39.9083 28.9074 39.7083 27.7707 39.3082 26.6902C38.9291 25.5872 38.3711 24.6306 37.634 23.8202C36.897 22.9874 36.002 22.3233 34.9491 21.8281C33.9173 21.3329 32.7591 21.0853 31.4745 21.0853C30.1689 21.0853 28.9896 21.3329 27.9367 21.8281C26.8838 22.3008 25.9783 22.9648 25.2202 23.8202C24.4832 24.6531 23.9041 25.6322 23.4829 26.7577C23.0828 27.8607 22.8828 29.0312 22.8828 30.2692C22.8828 31.5073 23.0828 32.6778 23.4829 33.7808C23.9041 34.8837 24.4832 35.8516 25.2202 36.6845C25.9783 37.5174 26.8838 38.1814 27.9367 38.6766C28.9896 39.1493 30.1584 39.3857 31.4429 39.3857C33.1908 39.3857 34.7175 38.9692 36.0231 38.1364C37.2257 37.361 38.1168 36.3915 38.6964 35.2277C38.7563 35.1077 38.8128 34.9854 38.8659 34.8612L35.8967 33.9496C35.7283 34.3548 35.4966 34.7262 35.2018 35.0638C34.907 35.4015 34.5701 35.6941 34.191 35.9417ZM35.5614 26.9847C35.3061 26.3969 34.9766 25.9131 34.5762 25.5259L34.5689 25.5188C34.1644 25.107 33.693 24.7879 33.1517 24.5605C32.6121 24.3339 32.0436 24.2203 31.4429 24.2203C30.8431 24.2203 30.2754 24.3336 29.7366 24.5595C29.2168 24.7862 28.7547 25.1051 28.3484 25.5187L28.3412 25.526C27.9409 25.9132 27.6113 26.3969 27.356 26.9847C27.1543 27.449 27.0128 27.9486 26.9328 28.485H36.0148C35.9319 27.9525 35.7818 27.4563 35.566 26.9948L35.5614 26.9847ZM36.4193 28.485C36.4384 28.6165 36.4538 28.7497 36.4653 28.8849H26.4837C26.4952 28.7497 26.5102 28.6165 26.5287 28.485C26.6117 27.8941 26.7652 27.3408 26.9891 26.8253C27.2629 26.195 27.6209 25.666 28.0631 25.2383C28.5053 24.7881 29.0107 24.4392 29.5793 24.1916C30.1689 23.944 30.7901 23.8202 31.4429 23.8202C32.0957 23.8202 32.7169 23.944 33.3066 24.1916C33.8962 24.4392 34.4121 24.7881 34.8543 25.2383C35.2966 25.666 35.6546 26.195 35.9283 26.8253C36.1695 27.3408 36.3331 27.8941 36.4193 28.485ZM46.4575 39.0049L46.4547 39.0036C45.3761 38.4859 44.4483 37.7899 43.6749 36.9159C42.9027 36.0433 42.309 35.0312 41.8927 33.8835L41.8918 33.8811C41.4761 32.7118 41.2685 31.4959 41.2685 30.2356C41.2685 28.9757 41.476 27.7706 41.8922 26.6228C42.3081 25.4531 42.9017 24.4289 43.6749 23.5552L43.6786 23.551C44.4719 22.6795 45.4088 21.9847 46.4863 21.4676L46.4891 21.4662C47.6006 20.9435 48.8283 20.6854 50.1655 20.6854C51.502 20.6854 52.7199 20.9432 53.8116 21.4668C54.9101 21.9837 55.8487 22.679 56.6228 23.5532C57.4175 24.4269 58.0224 25.4517 58.4388 26.6227C58.8551 27.7706 59.0625 28.9757 59.0625 30.2356C59.0625 31.4959 58.8549 32.7118 58.4392 33.8811L58.4384 33.8835C58.0215 35.0326 57.4165 36.0454 56.6227 36.918C55.8487 37.7921 54.9101 38.4874 53.8118 39.0042C52.72 39.5279 51.502 39.7858 50.1655 39.7858C48.8083 39.7858 47.5698 39.5281 46.4575 39.0049ZM53.6401 38.6428C54.6931 38.1476 55.588 37.4836 56.3251 36.6507C57.0832 35.8179 57.6623 34.85 58.0624 33.747C58.4625 32.6215 58.6625 31.451 58.6625 30.2355C58.6625 29.02 58.4625 27.8607 58.0624 26.7577C57.6623 25.6322 57.0832 24.6531 56.3251 23.8202C55.588 22.9874 54.6931 22.3233 53.6401 21.8281C52.6083 21.3329 51.4501 21.0853 50.1655 21.0853C48.881 21.0853 47.7123 21.3329 46.6594 21.8281C45.6275 22.3233 44.7325 22.9874 43.9744 23.8202C43.2374 24.6531 42.6688 25.6322 42.2687 26.7577C41.8686 27.8607 41.6686 29.02 41.6686 30.2355C41.6686 31.451 41.8686 32.6215 42.2687 33.747C42.6688 34.85 43.2374 35.8179 43.9744 36.6507C44.7115 37.4836 45.5959 38.1476 46.6278 38.6428C47.6807 39.1381 48.8599 39.3857 50.1655 39.3857C51.4501 39.3857 52.6083 39.1381 53.6401 38.6428ZM54.3366 28.0382L54.3354 28.0347C54.0962 27.3316 53.7706 26.7335 53.3622 26.2346C52.9559 25.7383 52.4756 25.3592 51.9195 25.0927L51.9116 25.0889L51.9038 25.0847C51.3745 24.8018 50.7974 24.6592 50.1655 24.6592C49.5577 24.6592 48.9791 24.8005 48.4247 25.0861C47.8847 25.3752 47.4101 25.7679 47.0004 26.2684C46.5904 26.7692 46.2536 27.3697 45.9933 28.0751C45.7576 28.7483 45.6379 29.4787 45.6379 30.2693C45.6379 31.085 45.7583 31.8275 45.9944 32.5004C46.2326 33.1794 46.5574 33.7668 46.9662 34.2671C47.3741 34.7438 47.8475 35.126 48.3879 35.416C48.9409 35.6796 49.5318 35.8119 50.1655 35.8119C50.8012 35.8119 51.3813 35.6788 51.9118 35.416C52.4719 35.1265 52.9547 34.7343 53.3622 34.2365C53.7723 33.7356 54.0979 33.1471 54.3366 32.4667C54.5727 31.7937 54.6931 31.0512 54.6931 30.2356C54.6931 29.4437 54.5731 28.7123 54.3366 28.0382ZM52.0924 35.7729C51.5027 36.0655 50.8605 36.2118 50.1655 36.2118C49.4706 36.2118 48.8178 36.0655 48.2071 35.7729C47.6175 35.4577 47.1016 35.0413 46.6594 34.5236C46.2171 33.9833 45.8697 33.3531 45.617 32.6328C45.3643 31.9125 45.2379 31.1246 45.2379 30.2692C45.2379 29.4364 45.3643 28.6598 45.617 27.9395C45.8907 27.1967 46.2487 26.5551 46.6909 26.0149C47.1332 25.4747 47.6491 25.047 48.2387 24.7319C48.8494 24.4167 49.4917 24.2592 50.1655 24.2592C50.8605 24.2592 51.5027 24.4167 52.0924 24.7319C52.7031 25.0245 53.2295 25.4409 53.6717 25.9811C54.114 26.5214 54.4614 27.1629 54.7141 27.9057C54.9668 28.626 55.0932 29.4026 55.0932 30.2355C55.0932 31.0908 54.9668 31.8787 54.7141 32.599C54.4614 33.3193 54.114 33.9496 53.6717 34.4898C53.2295 35.03 52.7031 35.4577 52.0924 35.7729ZM66.9918 38.7764C66.3051 38.3329 65.7104 37.7956 65.2082 37.1662V39.4481H61.3442V14H65.6188V23.4266C66.146 22.756 66.7486 22.1904 67.4275 21.7328L67.4308 21.7306C68.4935 21.0297 69.7303 20.6854 71.1257 20.6854C72.2854 20.6854 73.3535 20.96 74.3216 21.5128C75.2766 22.0357 76.0868 22.7481 76.7506 23.6455C77.4348 24.5197 77.9497 25.5418 78.2987 26.7061C78.6694 27.8496 78.8539 29.0492 78.8539 30.3031C78.8539 31.6067 78.6469 32.8349 78.2298 33.9848C77.8151 35.1278 77.2453 36.1371 76.5183 37.0084L76.5149 37.0125C75.7844 37.8643 74.9093 38.5392 73.8926 39.0355C72.8881 39.5363 71.806 39.7858 70.6518 39.7858C69.3182 39.7858 68.0978 39.4521 67.0003 38.7817L66.9918 38.7764ZM73.7158 38.6766C74.6845 38.2039 75.5163 37.5624 76.2112 36.752C76.9062 35.9192 77.4537 34.9513 77.8538 33.8483C78.2539 32.7453 78.4539 31.5635 78.4539 30.303C78.4539 29.0875 78.2749 27.9282 77.9169 26.8253C77.58 25.6998 77.0851 24.7206 76.4323 23.8877C75.8006 23.0324 75.032 22.3571 74.1265 21.8619C73.221 21.3441 72.2207 21.0853 71.1257 21.0853C69.799 21.0853 68.6408 21.4117 67.6511 22.0645C66.8713 22.5899 66.1939 23.2686 65.6188 24.1004C65.4795 24.3019 65.3462 24.5123 65.2189 24.7319V14.3999H61.7443V39.048H64.8082V35.8404C64.9322 36.0676 65.0656 36.2855 65.2082 36.4939C65.7438 37.2761 66.4107 37.9248 67.2088 38.4403C68.2407 39.0705 69.3884 39.3857 70.6519 39.3857C71.7469 39.3857 72.7682 39.1493 73.7158 38.6766ZM73.1279 34.162C73.5579 33.6605 73.8917 33.0847 74.1286 32.4312C74.3655 31.7553 74.4845 31.0467 74.4845 30.3031C74.4845 29.5589 74.3653 28.8497 74.128 28.1733L74.1234 28.16C73.9053 27.4606 73.5914 26.8659 73.1852 26.3697L73.1797 26.3629L73.1745 26.356C72.787 25.8382 72.3141 25.4258 71.7534 25.1158L71.7481 25.1129C71.2223 24.8117 70.6386 24.6592 69.9885 24.6592C69.0175 24.6592 68.1529 24.9913 67.3805 25.6718C66.6242 26.3564 66.0371 27.1828 65.6188 28.1559V32.6848C65.7338 33.1316 65.9275 33.5392 66.2008 33.9104C66.4936 34.2852 66.8354 34.6192 67.2274 34.9125C67.6162 35.2034 68.0327 35.4315 68.4776 35.5977C68.9249 35.7425 69.3437 35.8119 69.7358 35.8119C70.4346 35.8119 71.0661 35.6676 71.637 35.3838C72.2213 35.0707 72.7152 34.666 73.122 34.169L73.1279 34.162ZM71.8206 35.7391C71.1889 36.0542 70.4939 36.2118 69.7358 36.2118C69.2936 36.2118 68.8303 36.133 68.346 35.9755C67.8617 35.7954 67.4089 35.5478 66.9877 35.2326C66.5666 34.9175 66.1981 34.5573 65.8822 34.1522C65.5663 33.7245 65.3452 33.2518 65.2189 32.7341V28.0745C65.6611 27.0166 66.2928 26.1162 67.1141 25.3734C67.9564 24.6306 68.9146 24.2592 69.9885 24.2592C70.7045 24.2592 71.3573 24.428 71.9469 24.7656C72.5576 25.1033 73.0736 25.5535 73.4947 26.1162C73.9369 26.6564 74.2739 27.298 74.5055 28.0408C74.7582 28.7611 74.8846 29.5152 74.8846 30.303C74.8846 31.0908 74.7582 31.8449 74.5055 32.5652C74.2528 33.263 73.8948 33.882 73.4315 34.4223C72.9893 34.9625 72.4523 35.4015 71.8206 35.7391ZM81.1788 39.4481V20.9893H85.4534V39.4481H81.1788ZM81.1788 18.8855V14H85.4534V18.8855H81.1788ZM91.1143 39.0866C89.7643 38.5978 88.5919 37.9083 87.6026 37.0153L87.3605 36.7968L89.1459 33.7606L89.5051 34.0384C90.471 34.7853 91.419 35.3507 92.3487 35.74C93.2708 36.1038 94.2096 36.2846 95.1673 36.2846C96.1488 36.2846 96.8665 36.0806 97.3646 35.7193L97.37 35.7154C97.8669 35.3675 98.1155 34.8859 98.1155 34.2198C98.1155 33.9105 98.0461 33.6658 97.9234 33.4692C97.8006 33.2722 97.6089 33.0987 97.3255 32.9567C96.6866 32.6366 95.6634 32.2733 94.2371 31.8698C93.1988 31.5753 92.3041 31.2909 91.555 31.0163C90.7914 30.7365 90.1515 30.4036 89.6467 30.0111C89.1385 29.6161 88.7568 29.1493 88.516 28.6088C88.2768 28.0718 88.1655 27.4391 88.1655 26.7241C88.1655 25.7767 88.3318 24.9198 88.6749 24.1618L88.679 24.1528C89.0395 23.4063 89.5268 22.775 90.1411 22.2641C90.773 21.7335 91.5041 21.3379 92.3296 21.0756C93.1519 20.8143 94.0355 20.6854 94.9778 20.6854C96.2644 20.6854 97.4709 20.8953 98.5935 21.3189C99.7142 21.7417 100.716 22.3533 101.596 23.1529L101.85 23.3843L99.9259 26.2732L99.5833 25.9822C98.1055 24.7272 96.5625 24.119 94.9462 24.119C94.1239 24.119 93.4572 24.3067 92.9246 24.6601L92.9212 24.6623C92.4709 24.9545 92.219 25.4302 92.219 26.1838C92.219 26.4988 92.2744 26.7365 92.3648 26.9137C92.4537 27.0879 92.5999 27.2513 92.8231 27.3992C93.0847 27.5583 93.4209 27.7137 93.8375 27.8628C94.2947 27.9959 94.8562 28.1515 95.5224 28.3295C96.6456 28.624 97.6155 28.9199 98.4303 29.2178C99.2766 29.5195 99.9885 29.8849 100.556 30.3205C101.129 30.7379 101.562 31.2485 101.846 31.8525C102.131 32.4378 102.264 33.1306 102.264 33.9159C102.264 35.712 101.619 37.169 100.318 38.2424L100.317 38.2431C99.0452 39.287 97.3342 39.7858 95.2304 39.7858C93.8577 39.7858 92.4876 39.5527 91.1219 39.0893L91.1143 39.0866ZM101.485 32.025C101.232 31.4848 100.842 31.0233 100.316 30.6407C99.7896 30.2355 99.1157 29.8866 98.2944 29.5939C97.4942 29.3013 96.5361 29.0087 95.42 28.7161C94.7461 28.536 94.1776 28.3784 93.7143 28.2434C93.2721 28.0858 92.9035 27.917 92.6087 27.7369C92.335 27.5568 92.1349 27.343 92.0086 27.0954C91.8822 26.8478 91.819 26.5439 91.819 26.1837C91.819 25.3284 92.1139 24.7093 92.7035 24.3267C93.3142 23.9215 94.0617 23.7189 94.9462 23.7189C96.5569 23.7189 98.0852 24.287 99.531 25.423C99.6352 25.5048 99.7389 25.5895 99.8422 25.6773L101.327 23.4488C100.484 22.6835 99.5263 22.0982 98.4524 21.693C97.3784 21.2879 96.2202 21.0853 94.9778 21.0853C94.0723 21.0853 93.2299 21.2091 92.4508 21.4567C91.6716 21.7043 90.9873 22.0757 90.3976 22.5709C89.829 23.0436 89.3763 23.6289 89.0394 24.3267C88.7235 25.0245 88.5656 25.8236 88.5656 26.724C88.5656 27.3993 88.6708 27.9733 88.8814 28.446C89.092 28.9187 89.4289 29.3351 89.8922 29.6952C90.3555 30.0554 90.9557 30.3705 91.6927 30.6407C92.4297 30.9108 93.3142 31.1921 94.346 31.4848C95.778 31.8899 96.8309 32.2613 97.5048 32.599C98.1786 32.9366 98.5155 33.4769 98.5155 34.2197C98.5155 35.0075 98.2102 35.6153 97.5995 36.043C97.0099 36.4707 96.1992 36.6845 95.1673 36.6845C94.1565 36.6845 93.1668 36.4932 92.1981 36.1105C91.3344 35.7492 90.4623 35.2449 89.5819 34.5973C89.4749 34.5186 89.3677 34.4377 89.2605 34.3548L87.8706 36.7183C88.8183 37.5736 89.9449 38.2377 91.2505 38.7104C92.5771 39.1606 93.9038 39.3857 95.2305 39.3857C97.2731 39.3857 98.8841 38.9017 100.063 37.9338C101.264 36.9434 101.864 35.604 101.864 33.9158C101.864 33.173 101.737 32.5427 101.485 32.025ZM81.5788 21.3892H85.0534V39.048H81.5788V21.3892ZM81.5788 14.3999H85.0534V18.4854H81.5788V14.3999Z" clip-rule="evenodd"/><path fill="#1C2922" d="M130.615 39.6481H126.062V29.7213C126.062 28.3257 125.801 27.3015 125.28 26.6488C124.759 25.9735 124.023 25.6358 123.072 25.6358C122.664 25.6358 122.233 25.7259 121.78 25.9059C121.327 26.086 120.897 26.3449 120.489 26.6825C120.081 26.9977 119.707 27.3803 119.368 27.8305C119.028 28.2807 118.779 28.7759 118.62 29.3162V39.6481H114.067V15H118.62V25.2307C119.277 24.0827 120.161 23.2048 121.271 22.597C122.403 21.9668 123.649 21.6516 125.008 21.6516C126.164 21.6516 127.104 21.8542 127.829 22.2594C128.554 22.642 129.12 23.1598 129.528 23.8125C129.936 24.4653 130.219 25.2081 130.377 26.041C130.536 26.8739 130.615 27.7292 130.615 28.6071V39.6481Z"/><path fill="#1C2922" d="M140.012 39.9858C138.177 39.9858 136.783 39.4005 135.832 38.23C134.88 37.0595 134.405 35.3263 134.405 33.0303V21.9555H138.958V32.0511C138.958 34.7748 139.944 36.1366 141.914 36.1366C142.798 36.1366 143.647 35.8777 144.463 35.36C145.301 34.8198 145.981 34.0094 146.502 32.929V21.9555H151.055V34.4484C151.055 34.9211 151.135 35.2587 151.293 35.4613C151.474 35.6639 151.758 35.7765 152.143 35.799V39.6481C151.69 39.7382 151.305 39.7944 150.987 39.8169C150.693 39.8395 150.421 39.8507 150.172 39.8507C149.356 39.8507 148.688 39.6706 148.167 39.3105C147.669 38.9278 147.374 38.4101 147.283 37.7573L147.182 36.3392C146.389 37.5547 145.369 38.4664 144.123 39.0741C142.877 39.6819 141.507 39.9858 140.012 39.9858Z"/><path fill="#1C2922" d="M165.707 39.9858C164.347 39.9858 163.135 39.6819 162.071 39.0741C161.006 38.4664 160.168 37.6335 159.556 36.5755V39.6481H155.58V15H160.134V25.0618C160.768 23.9814 161.595 23.1485 162.614 22.5633C163.656 21.9555 164.868 21.6516 166.25 21.6516C167.406 21.6516 168.459 21.8992 169.411 22.3944C170.362 22.8896 171.178 23.5537 171.857 24.3865C172.559 25.2194 173.092 26.1986 173.454 27.3241C173.839 28.4495 174.032 29.6313 174.032 30.8693C174.032 32.1524 173.817 33.3454 173.386 34.4484C172.979 35.5514 172.401 36.5193 171.653 37.3521C170.906 38.1625 170.022 38.804 169.003 39.2767C167.983 39.7494 166.885 39.9858 165.707 39.9858ZM164.449 36.1366C165.174 36.1366 165.843 36.0015 166.454 35.7314C167.066 35.4388 167.587 35.0561 168.017 34.5834C168.448 34.1107 168.776 33.5592 169.003 32.929C169.252 32.2987 169.377 31.6234 169.377 30.9031C169.377 30.1828 169.263 29.4962 169.037 28.8435C168.81 28.1907 168.482 27.6167 168.051 27.1215C167.644 26.6263 167.156 26.2323 166.59 25.9397C166.024 25.6471 165.401 25.5008 164.721 25.5008C163.702 25.5008 162.784 25.8384 161.969 26.5137C161.176 27.1665 160.564 27.9768 160.134 28.9448V33.1653C160.292 33.6155 160.519 34.0207 160.813 34.3809C161.131 34.741 161.482 35.0561 161.867 35.3263C162.252 35.5739 162.671 35.7765 163.124 35.934C163.577 36.0691 164.019 36.1366 164.449 36.1366Z"/></svg>