<svg xmlns="http://www.w3.org/2000/svg" width="249" height="85" fill="none" viewBox="0 0 249 85"><rect width="100.785" height="85" x="148.215" fill="#36E6A6" rx="10"/><path fill="#1C2922" d="M5.4493 34.8906V61.4646H0.553571V23.7295H4.40022L22.1472 50.9413V23.7827H27.0867V61.4646H23.0215L5.4493 34.8906Z"/><path fill="#1C2922" d="M43.5121 61.996C41.7345 61.996 40.1171 61.624 38.6601 60.8799C37.203 60.1004 35.9499 59.0552 34.9009 57.7442C33.8809 56.4332 33.0795 54.9096 32.4967 53.1735C31.943 51.4373 31.6662 49.5949 31.6662 47.6461C31.6662 45.6973 31.943 43.8549 32.4967 42.1187C33.0795 40.3471 33.8809 38.8058 34.9009 37.4948C35.9499 36.1484 37.203 35.1032 38.6601 34.3591C40.1171 33.5796 41.749 33.1899 43.5558 33.1899C45.3334 33.1899 46.9362 33.5796 48.3641 34.3591C49.8212 35.1386 51.0597 36.1839 52.0796 37.4948C53.0996 38.7704 53.8718 40.2763 54.3964 42.0124C54.95 43.7132 55.2269 45.5025 55.2269 47.3804C55.2269 47.8055 55.2123 48.213 55.1832 48.6028C55.154 48.9571 55.1249 49.2583 55.0957 49.5063H36.7805C36.8679 50.7464 37.101 51.8625 37.4799 52.8546C37.8878 53.8467 38.3978 54.7148 39.0098 55.4588C39.6509 56.1675 40.3648 56.7167 41.1517 57.1064C41.9676 57.4962 42.8127 57.6911 43.6869 57.6911C44.328 57.6911 44.9546 57.6025 45.5666 57.4253C46.2077 57.2127 46.7905 56.9293 47.315 56.5749C47.8396 56.1852 48.3058 55.7246 48.7138 55.1931C49.1218 54.6616 49.4423 54.077 49.6755 53.4392L53.7844 54.8742C52.9976 56.9647 51.6862 58.6831 49.8503 60.0296C48.0436 61.3405 45.9308 61.996 43.5121 61.996ZM50.4623 45.467C50.3749 44.2978 50.1272 43.2171 49.7192 42.225C49.3404 41.2329 48.8449 40.4003 48.233 39.7271C47.621 39.0184 46.9071 38.4692 46.0911 38.0795C45.2751 37.6897 44.4155 37.4948 43.5121 37.4948C42.6087 37.4948 41.7491 37.6897 40.9331 38.0795C40.1463 38.4692 39.4469 39.0184 38.8349 39.7271C38.223 40.4003 37.7276 41.2329 37.3487 42.225C36.9699 43.2171 36.7368 44.2978 36.6493 45.467H50.4623Z"/><path fill="#1C2922" d="M69.4213 61.996C67.6145 61.996 65.9826 61.6063 64.5256 60.8268C63.0976 60.0473 61.8737 59.002 60.8538 57.6911C59.8338 56.3801 59.047 54.8565 58.4933 53.1203C57.9396 51.3487 57.6628 49.5063 57.6628 47.593C57.6628 45.6796 57.9396 43.8549 58.4933 42.1187C59.047 40.3471 59.8338 38.8058 60.8538 37.4948C61.9028 36.1839 63.1413 35.1386 64.5693 34.3591C66.0263 33.5796 67.6437 33.1899 69.4213 33.1899C71.1989 33.1899 72.8017 33.5796 74.2296 34.3591C75.6867 35.1386 76.9252 36.1839 77.9451 37.4948C78.9942 38.8058 79.7956 40.3471 80.3493 42.1187C80.9029 43.8549 81.1798 45.6796 81.1798 47.593C81.1798 49.5063 80.9029 51.3487 80.3493 53.1203C79.7956 54.8565 78.9942 56.3801 77.9451 57.6911C76.9252 59.002 75.6867 60.0473 74.2296 60.8268C72.8017 61.6063 71.1989 61.996 69.4213 61.996ZM62.6022 47.6461C62.6022 48.9925 62.7771 50.2326 63.1268 51.3665C63.4765 52.5003 63.9573 53.4924 64.5693 54.3427C65.1812 55.1577 65.8952 55.8132 66.7112 56.3092C67.5562 56.7698 68.4596 57.0001 69.4213 57.0001C70.3829 57.0001 71.2718 56.7698 72.0877 56.3092C72.9328 55.8132 73.6613 55.14 74.2733 54.2896C74.8853 53.4392 75.3661 52.4471 75.7158 51.3133C76.0655 50.1795 76.2403 48.9394 76.2403 47.593C76.2403 46.282 76.0655 45.0596 75.7158 43.9257C75.3661 42.7565 74.8853 41.7467 74.2733 40.8963C73.6613 40.0459 72.9328 39.3905 72.0877 38.9298C71.2718 38.4338 70.3829 38.1858 69.4213 38.1858C68.4888 38.1858 67.6 38.4338 66.7549 38.9298C65.9389 39.4259 65.2249 40.0991 64.613 40.9495C64.001 41.7998 63.5056 42.8096 63.1268 43.9789C62.7771 45.1127 62.6022 46.3351 62.6022 47.6461Z"/><path fill="#1C2922" d="M97.7712 61.996C96.0227 61.996 94.4345 61.5 93.0066 60.5079C91.6078 59.4804 90.5004 58.1162 89.6845 56.4155V61.4646H85.4444V22.6666H90.2527V38.9298C91.1561 37.1582 92.278 35.7587 93.6185 34.7312C94.9882 33.7036 96.591 33.1899 98.4268 33.1899C99.9422 33.1899 101.326 33.5973 102.579 34.4123C103.833 35.1918 104.896 36.2547 105.77 37.6011C106.674 38.9121 107.359 40.4534 107.825 42.225C108.32 43.9612 108.568 45.7859 108.568 47.6992C108.568 49.6834 108.291 51.5436 107.737 53.2798C107.184 55.0159 106.426 56.5395 105.464 57.8505C104.503 59.126 103.352 60.1359 102.011 60.8799C100.7 61.624 99.2865 61.996 97.7712 61.996ZM96.5035 57.0001C97.5526 57.0001 98.5143 56.7521 99.3885 56.2561C100.263 55.7246 101.006 55.0337 101.618 54.1833C102.259 53.3329 102.754 52.3585 103.104 51.2602C103.454 50.1263 103.629 48.9394 103.629 47.6992C103.629 46.4591 103.454 45.2722 103.104 44.1383C102.783 42.9691 102.317 41.9593 101.705 41.1089C101.122 40.2231 100.408 39.5145 99.5633 38.983C98.7474 38.4515 97.844 38.1858 96.8532 38.1858C95.367 38.1858 94.0411 38.7704 92.8754 39.9397C91.7389 41.1089 90.8647 42.5262 90.2527 44.1915V51.5259C90.4276 52.3408 90.7336 53.0849 91.1707 53.7581C91.6078 54.3959 92.1178 54.9628 92.7006 55.4588C93.2834 55.9549 93.9099 56.3446 94.5802 56.6281C95.2504 56.8761 95.8915 57.0001 96.5035 57.0001Z"/><path fill="#1C2922" d="M112.892 61.4646V33.6682H117.701V61.4646H112.892ZM112.892 29.0975V22.6666H117.701V29.0975H112.892Z"/><path fill="#1C2922" d="M131.784 61.996C129.948 61.996 128.112 61.6417 126.276 60.9331C124.47 60.189 122.911 59.1438 121.599 57.7973L123.523 54.077C124.892 55.2817 126.247 56.2029 127.588 56.8407C128.928 57.443 130.298 57.7442 131.697 57.7442C133.125 57.7442 134.247 57.4076 135.063 56.7344C135.908 56.0612 136.33 55.1045 136.33 53.8644C136.33 52.6951 135.864 51.8448 134.931 51.3133C133.999 50.7818 132.542 50.1972 130.56 49.5594C129.132 49.0988 127.908 48.6559 126.888 48.2307C125.868 47.8055 125.038 47.3095 124.397 46.7426C123.756 46.1757 123.289 45.5202 122.998 44.7761C122.707 44.032 122.561 43.1285 122.561 42.0656C122.561 40.6483 122.779 39.3905 123.217 38.2921C123.683 37.1937 124.309 36.2724 125.096 35.5284C125.912 34.7489 126.859 34.1642 127.937 33.7745C129.016 33.3847 130.181 33.1899 131.434 33.1899C133.154 33.1899 134.757 33.5088 136.243 34.1465C137.729 34.7843 139.055 35.7055 140.221 36.9102L138.166 40.418C136.039 38.3629 133.78 37.3354 131.391 37.3354C130.167 37.3354 129.132 37.6543 128.287 38.2921C127.471 38.8944 127.063 39.8688 127.063 41.2152C127.063 41.7821 127.151 42.2604 127.326 42.6502C127.5 43.0399 127.777 43.3766 128.156 43.66C128.564 43.9435 129.074 44.2092 129.686 44.4572C130.327 44.6698 131.114 44.9178 132.046 45.2013C133.591 45.6619 134.917 46.1225 136.024 46.5831C137.161 47.0438 138.093 47.593 138.822 48.2307C139.55 48.8331 140.089 49.5594 140.439 50.4098C140.789 51.2247 140.964 52.2168 140.964 53.3861C140.964 56.0435 140.133 58.1517 138.472 59.7107C136.84 61.2342 134.611 61.996 131.784 61.996Z"/><path fill="#1C2922" fill-rule="evenodd" d="M6.0028 62.0943H0V23.1001H4.67877L21.5937 49.0359V23.1532H27.6402V62.0943H22.7451L6.0028 36.7753V62.0943ZM5.4493 34.8906L23.0215 61.4646H27.0867V23.7827H22.1472V50.9413L4.40022 23.7295H0.553571V61.4646H5.4493V34.8906ZM38.4245 61.4498C36.9038 60.6363 35.5911 59.5424 34.4915 58.1682L34.4863 58.1617C33.4196 56.7906 32.5846 55.2007 31.9795 53.3982L31.9762 53.3884C31.3994 51.5796 31.1126 49.6642 31.1126 47.6463C31.1126 45.6284 31.3995 43.7129 31.9763 41.9042L31.9782 41.8982C32.5829 40.0602 33.4179 38.451 34.4863 37.0777C35.5869 35.6652 36.9029 34.5673 38.4289 33.7872C39.967 32.9652 41.6794 32.5604 43.5558 32.5604C45.4052 32.5604 47.0906 32.9662 48.6015 33.7905C50.1215 34.604 51.4204 35.6985 52.4917 37.0746C53.5629 38.4152 54.3707 39.9934 54.9177 41.8009C55.4934 43.572 55.7804 45.4332 55.7804 47.3805C55.7804 47.822 55.7653 48.2473 55.7347 48.6563L55.7343 48.6616C55.7047 49.021 55.6748 49.331 55.6444 49.5898L55.5802 50.1361H37.3971C37.5068 51.04 37.7038 51.8587 37.9845 52.5959C38.3671 53.5243 38.8412 54.33 39.405 55.0179C39.9969 55.6698 40.6513 56.1715 41.3693 56.5277C42.1172 56.8843 42.8884 57.0616 43.6869 57.0616C44.2795 57.0616 44.857 56.9802 45.4208 56.8179C46.0134 56.6206 46.5463 56.3606 47.0222 56.0406C47.5007 55.6837 47.9251 55.2634 48.2968 54.7791C48.6663 54.2978 48.9547 53.7712 49.1643 53.1976L49.3573 52.6696L54.5356 54.4781L54.2932 55.1222C53.459 57.3387 52.0699 59.151 50.1502 60.5589L50.148 60.5605C48.2412 61.9441 46.0223 62.6258 43.5121 62.6258C41.6652 62.6258 39.9694 62.2389 38.4333 61.4545L38.4245 61.4498ZM47.315 56.5749C46.7905 56.9293 46.2077 57.2127 45.5666 57.4253C44.9546 57.6025 44.328 57.6911 43.6869 57.6911C42.8127 57.6911 41.9676 57.4962 41.1517 57.1064C40.3648 56.7167 39.6509 56.1675 39.0098 55.4588C38.3978 54.7148 37.8878 53.8467 37.4799 52.8546C37.1663 52.0333 36.9525 51.1273 36.8386 50.1361C36.8149 49.9299 36.7955 49.7198 36.7805 49.5063H55.0957C55.1249 49.2583 55.154 48.9571 55.1832 48.6028C55.2123 48.213 55.2269 47.8055 55.2269 47.3804C55.2269 45.5025 54.95 43.7132 54.3964 42.0124C53.8718 40.2763 53.0996 38.7704 52.0796 37.4948C51.0597 36.1839 49.8212 35.1386 48.3641 34.3591C46.9362 33.5796 45.3334 33.1899 43.5558 33.1899C41.749 33.1899 40.1171 33.5796 38.6601 34.3591C37.203 35.1032 35.9499 36.1484 34.9009 37.4948C33.8809 38.8058 33.0795 40.3471 32.4967 42.1187C31.943 43.8549 31.6662 45.6973 31.6662 47.6461C31.6662 49.5949 31.943 51.4373 32.4967 53.1735C33.0795 54.9096 33.8809 56.4332 34.9009 57.7442C35.9499 59.0552 37.203 60.1004 38.6601 60.8799C40.1171 61.624 41.7345 61.996 43.5121 61.996C45.9308 61.996 48.0436 61.3405 49.8503 60.0296C51.5145 58.8091 52.7477 57.283 53.5499 55.4511C53.6326 55.2621 53.7108 55.0697 53.7844 54.8742L49.6755 53.4392C49.4423 54.077 49.1218 54.6616 48.7138 55.1931C48.3058 55.7246 47.8396 56.1852 47.315 56.5749ZM49.2114 42.476C48.8582 41.5508 48.4021 40.7892 47.8481 40.1798L47.8379 40.1686C47.2781 39.5204 46.6259 39.018 45.8767 38.6602C45.1301 38.3035 44.3434 38.1246 43.5121 38.1246C42.682 38.1246 41.8964 38.303 41.1508 38.6585C40.4316 39.0154 39.792 39.5174 39.2298 40.1684L39.2198 40.18C38.6658 40.7894 38.2097 41.5508 37.8564 42.476C37.5773 43.2068 37.3815 43.9932 37.2708 44.8376H49.8388C49.7241 43.9994 49.5165 43.2184 49.2178 42.4919L49.2114 42.476ZM50.3986 44.8376C50.4251 45.0445 50.4464 45.2542 50.4623 45.467H36.6493C36.6652 45.2542 36.6859 45.0445 36.7115 44.8376C36.8264 43.9075 37.0388 43.0365 37.3487 42.225C37.7276 41.2329 38.223 40.4003 38.8349 39.7271C39.4469 39.0184 40.1463 38.4692 40.9331 38.0795C41.7491 37.6897 42.6087 37.4948 43.5121 37.4948C44.4155 37.4948 45.2751 37.6897 46.0911 38.0795C46.9071 38.4692 47.621 39.0184 48.233 39.7271C48.8449 40.4003 49.3404 41.2329 49.7192 42.225C50.0529 43.0365 50.2794 43.9075 50.3986 44.8376ZM64.2899 61.3967L64.286 61.3946C62.7935 60.5798 61.5095 59.4842 60.4392 58.1085C59.3706 56.7349 58.549 55.1417 57.9729 53.3352L57.9717 53.3314C57.3965 51.4909 57.1092 49.577 57.1092 47.5931C57.1092 45.61 57.3963 43.7131 57.9723 41.9063C58.5479 40.0651 59.3692 38.453 60.4392 37.0777L60.4443 37.0711C61.5422 35.6992 62.8387 34.6056 64.3297 33.7916L64.3336 33.7895C65.8718 32.9666 67.5708 32.5604 69.4213 32.5604C71.2707 32.5604 72.9561 32.9662 74.4669 33.7905C75.987 34.604 77.2858 35.6985 78.3571 37.0745C79.4569 38.4498 80.2939 40.0629 80.8702 41.9062C81.4462 43.7131 81.7333 45.61 81.7333 47.5931C81.7333 49.577 81.446 51.4909 80.8708 53.3314L80.8696 53.3352C80.2928 55.1439 79.4555 56.7382 78.357 58.1118C77.2858 59.4877 75.9871 60.5821 74.4671 61.3956C72.9563 62.22 71.2708 62.6258 69.4213 62.6258C67.543 62.6258 65.8292 62.2202 64.2899 61.3967ZM74.2296 60.8268C75.6867 60.0473 76.9252 59.002 77.9451 57.6911C78.9942 56.3801 79.7956 54.8565 80.3493 53.1203C80.9029 51.3487 81.1798 49.5063 81.1798 47.593C81.1798 45.6796 80.9029 43.8549 80.3493 42.1187C79.7956 40.3471 78.9942 38.8058 77.9451 37.4948C76.9252 36.1839 75.6867 35.1386 74.2296 34.3591C72.8017 33.5796 71.1989 33.1899 69.4213 33.1899C67.6437 33.1899 66.0263 33.5796 64.5693 34.3591C63.1413 35.1386 61.9028 36.1839 60.8538 37.4948C59.8338 38.8058 59.047 40.3471 58.4933 42.1187C57.9396 43.8549 57.6628 45.6796 57.6628 47.593C57.6628 49.5063 57.9396 51.3487 58.4933 53.1203C59.047 54.8565 59.8338 56.3801 60.8538 57.6911C61.8737 59.002 63.0976 60.0473 64.5256 60.8268C65.9826 61.6063 67.6145 61.996 69.4213 61.996C71.1989 61.996 72.8017 61.6063 74.2296 60.8268ZM75.1934 44.1343L75.1917 44.1287C74.8607 43.022 74.4101 42.0806 73.8449 41.2953C73.2827 40.5141 72.6181 39.9173 71.8485 39.4978L71.8375 39.4918L71.8268 39.4853C71.0943 39.04 70.2956 38.8156 69.4213 38.8156C68.5802 38.8156 67.7794 39.0379 67.0122 39.4874C66.2649 39.9424 65.6082 40.5606 65.0413 41.3484C64.4739 42.1368 64.0077 43.082 63.6476 44.1923C63.3213 45.252 63.1557 46.4017 63.1557 47.6463C63.1557 48.9302 63.3224 50.0989 63.6491 51.1582C63.9787 52.227 64.4282 53.1516 64.9939 53.939C65.5583 54.6894 66.2135 55.291 66.9612 55.7475C67.7265 56.1624 68.5443 56.3707 69.4213 56.3707C70.3009 56.3707 71.1036 56.1611 71.8378 55.7475C72.6129 55.2918 73.2811 54.6745 73.8449 53.8909C74.4124 53.1024 74.8631 52.1761 75.1934 51.105C75.5201 50.0457 75.6868 48.877 75.6868 47.5931C75.6868 46.3467 75.5207 45.1953 75.1934 44.1343ZM72.0877 56.3092C71.2718 56.7698 70.3829 57.0001 69.4213 57.0001C68.4596 57.0001 67.5562 56.7698 66.7112 56.3092C65.8952 55.8132 65.1812 55.1577 64.5693 54.3427C63.9573 53.4924 63.4765 52.5003 63.1268 51.3665C62.7771 50.2326 62.6022 48.9925 62.6022 47.6461C62.6022 46.3351 62.7771 45.1127 63.1268 43.9789C63.5056 42.8096 64.001 41.7998 64.613 40.9495C65.2249 40.0991 65.9389 39.4259 66.7549 38.9298C67.6 38.4338 68.4888 38.1858 69.4213 38.1858C70.3829 38.1858 71.2718 38.4338 72.0877 38.9298C72.9328 39.3905 73.6613 40.0459 74.2733 40.8963C74.8853 41.7467 75.3661 42.7565 75.7158 43.9257C76.0655 45.0596 76.2403 46.282 76.2403 47.593C76.2403 48.9394 76.0655 50.1795 75.7158 51.3133C75.3661 52.4471 74.8853 53.4392 74.2733 54.2896C73.6613 55.14 72.9328 55.8132 72.0877 56.3092ZM92.7062 61.037C91.756 60.3389 90.9329 59.4932 90.238 58.5024V62.0943H84.8908V22.0371H90.8062V36.8752C91.5357 35.8196 92.3696 34.9294 93.3092 34.2092L93.3137 34.2057C94.7844 33.1024 96.4959 32.5604 98.4268 32.5604C100.032 32.5604 101.51 32.9927 102.85 33.8628C104.171 34.6858 105.292 35.8072 106.211 37.2198C107.158 38.5959 107.87 40.2048 108.353 42.0374C108.866 43.8373 109.121 45.7257 109.121 47.6994C109.121 49.7513 108.835 51.6847 108.258 53.4946C107.684 55.2939 106.896 56.8825 105.889 58.254L105.885 58.2606C104.874 59.6013 103.663 60.6636 102.256 61.4448C100.866 62.2331 99.3683 62.6258 97.7711 62.6258C95.9256 62.6258 94.2368 62.1006 92.718 61.0454L92.7062 61.037ZM102.011 60.8799C103.352 60.1359 104.503 59.126 105.464 57.8505C106.426 56.5395 107.184 55.0159 107.737 53.2798C108.291 51.5436 108.568 49.6834 108.568 47.6992C108.568 45.7859 108.32 43.9612 107.825 42.225C107.359 40.4534 106.674 38.9121 105.77 37.6011C104.896 36.2547 103.833 35.1918 102.579 34.4123C101.326 33.5973 99.9422 33.1899 98.4268 33.1899C96.591 33.1899 94.9882 33.7036 93.6185 34.7312C92.5395 35.5583 91.602 36.6266 90.8062 37.9358C90.6134 38.2531 90.4289 38.5843 90.2527 38.9298V22.6666H85.4444V61.4646H89.6845V56.4155C89.8561 56.7732 90.0406 57.1162 90.238 57.4441C90.9791 58.6753 91.902 59.6965 93.0066 60.5079C94.4345 61.5 96.0227 61.996 97.7712 61.996C99.2865 61.996 100.7 61.624 102.011 60.8799ZM101.198 53.7736C101.793 52.9842 102.255 52.0778 102.582 51.0492C102.91 49.9853 103.075 48.8698 103.075 47.6994C103.075 46.528 102.91 45.4116 102.582 44.3469L102.575 44.326C102.273 43.2251 101.839 42.289 101.277 41.5079L101.269 41.4973L101.262 41.4863C100.726 40.6714 100.071 40.0222 99.2955 39.5342L99.2882 39.5296C98.5606 39.0556 97.7529 38.8156 96.8532 38.8156C95.5095 38.8156 94.313 39.3383 93.2441 40.4094C92.1975 41.487 91.385 42.7878 90.8062 44.3195V51.4484C90.9654 52.1516 91.2333 52.7933 91.6116 53.3776C92.0168 53.9676 92.4898 54.4932 93.0322 54.9549C93.5703 55.4128 94.1466 55.7718 94.7623 56.0335C95.3814 56.2614 95.9609 56.3707 96.5035 56.3707C97.4704 56.3707 98.3443 56.1435 99.1344 55.6967C99.943 55.2039 100.626 54.5669 101.189 53.7846L101.198 53.7736ZM99.3885 56.2561C98.5143 56.7521 97.5526 57.0001 96.5035 57.0001C95.8915 57.0001 95.2504 56.8761 94.5802 56.6281C93.9099 56.3446 93.2834 55.9549 92.7006 55.4588C92.1178 54.9628 91.6078 54.3959 91.1707 53.7581C90.7336 53.0849 90.4276 52.3408 90.2527 51.5259V44.1915C90.8647 42.5262 91.7389 41.1089 92.8754 39.9397C94.0411 38.7704 95.367 38.1858 96.8532 38.1858C97.844 38.1858 98.7474 38.4515 99.5633 38.983C100.408 39.5145 101.122 40.2231 101.705 41.1089C102.317 41.9593 102.783 42.9691 103.104 44.1383C103.454 45.2722 103.629 46.4591 103.629 47.6992C103.629 48.9394 103.454 50.1263 103.104 51.2602C102.754 52.3585 102.259 53.3329 101.618 54.1833C101.006 55.0337 100.263 55.7246 99.3885 56.2561ZM112.339 62.0943V33.0387H118.254V62.0943H112.339ZM112.339 29.7273V22.0371H118.254V29.7273H112.339ZM126.088 61.5252C124.22 60.7559 122.597 59.6705 121.228 58.2649L120.893 57.9209L123.364 53.1418L123.861 53.5791C125.198 54.7547 126.51 55.6447 127.796 56.2575C129.072 56.8301 130.371 57.1147 131.697 57.1147C133.055 57.1147 134.048 56.7937 134.737 56.2249L134.745 56.2187C135.432 55.6711 135.777 54.913 135.777 53.8646C135.777 53.3778 135.68 52.9926 135.511 52.683C135.341 52.373 135.075 52.0998 134.683 51.8764C133.799 51.3724 132.383 50.8007 130.409 50.1654C128.973 49.7019 127.735 49.2542 126.698 48.8221C125.641 48.3815 124.756 47.8576 124.057 47.2398C123.354 46.618 122.826 45.8832 122.492 45.0325C122.161 44.1872 122.007 43.1912 122.007 42.0657C122.007 40.5744 122.238 39.2256 122.712 38.0326L122.718 38.0184C123.217 36.8434 123.891 35.8496 124.741 35.0454C125.616 34.2102 126.627 33.5875 127.77 33.1746C128.908 32.7633 130.13 32.5604 131.434 32.5604C133.215 32.5604 134.884 32.8909 136.438 33.5576C137.989 34.2231 139.375 35.1859 140.593 36.4444L140.945 36.8086L138.282 41.3561L137.808 40.898C135.763 38.9225 133.627 37.9652 131.391 37.9652C130.253 37.9652 129.33 38.2606 128.593 38.8169L128.589 38.8204C127.965 39.2804 127.617 40.029 127.617 41.2154C127.617 41.7112 127.693 42.0853 127.819 42.3642C127.942 42.6384 128.144 42.8957 128.453 43.1285C128.815 43.3788 129.28 43.6235 129.857 43.8581C130.489 44.0677 131.266 44.3126 132.188 44.5928C133.742 45.0564 135.085 45.5222 136.212 45.9911C137.383 46.466 138.369 47.0411 139.153 47.7267C139.946 48.3838 140.547 49.1875 140.938 50.1383C141.333 51.0595 141.517 52.1501 141.517 53.3862C141.517 56.2134 140.625 58.5068 138.824 60.1965L138.823 60.1975C137.063 61.8407 134.695 62.6258 131.784 62.6258C129.884 62.6258 127.988 62.259 126.099 61.5295L126.088 61.5252ZM140.439 50.4098C140.089 49.5594 139.55 48.8331 138.822 48.2307C138.093 47.593 137.161 47.0438 136.024 46.5831C134.917 46.1225 133.591 45.6619 132.046 45.2013C131.114 44.9178 130.327 44.6698 129.686 44.4572C129.074 44.2092 128.564 43.9435 128.156 43.66C127.777 43.3766 127.5 43.0399 127.326 42.6502C127.151 42.2604 127.063 41.7821 127.063 41.2152C127.063 39.8688 127.471 38.8944 128.287 38.2921C129.132 37.6543 130.167 37.3354 131.391 37.3354C133.62 37.3354 135.735 38.2296 137.735 40.0178C137.88 40.1466 138.023 40.2799 138.166 40.418L140.221 36.9102C139.055 35.7055 137.729 34.7843 136.243 34.1465C134.757 33.5088 133.154 33.1899 131.434 33.1899C130.181 33.1899 129.016 33.3847 127.937 33.7745C126.859 34.1642 125.912 34.7489 125.096 35.5284C124.309 36.2724 123.683 37.1937 123.217 38.2921C122.779 39.3905 122.561 40.6483 122.561 42.0656C122.561 43.1285 122.707 44.032 122.998 44.7761C123.289 45.5202 123.756 46.1757 124.397 46.7426C125.038 47.3095 125.868 47.8055 126.888 48.2307C127.908 48.6559 129.132 49.0988 130.56 49.5594C132.542 50.1972 133.999 50.7818 134.931 51.3133C135.864 51.8448 136.33 52.6951 136.33 53.8644C136.33 55.1045 135.908 56.0612 135.063 56.7344C134.247 57.4076 133.125 57.7442 131.697 57.7442C130.298 57.7442 128.928 57.443 127.588 56.8407C126.393 56.272 125.186 55.4782 123.967 54.4589C123.819 54.3349 123.671 54.2076 123.523 54.077L121.599 57.7973C122.911 59.1438 124.47 60.189 126.276 60.9331C128.112 61.6417 129.948 61.996 131.784 61.996C134.611 61.996 136.84 61.2342 138.472 59.7107C140.133 58.1517 140.964 56.0435 140.964 53.3861C140.964 52.2168 140.789 51.2247 140.439 50.4098ZM112.892 33.6682H117.701V61.4646H112.892V33.6682ZM112.892 22.6666H117.701V29.0975H112.892V22.6666Z" clip-rule="evenodd"/><path fill="#1C2922" d="M180.751 62.4093H174.45V46.7838C174.45 44.587 174.09 42.9749 173.369 41.9474C172.648 40.8844 171.629 40.3529 170.312 40.3529C169.748 40.3529 169.152 40.4946 168.525 40.7781C167.898 41.0616 167.302 41.469 166.738 42.0005C166.174 42.4965 165.657 43.0989 165.186 43.8075C164.716 44.5162 164.371 45.2957 164.152 46.146V62.4093H157.851V23.6113H164.152V39.7151C165.061 37.9081 166.284 36.5263 167.82 35.5696C169.387 34.5775 171.111 34.0815 172.992 34.0815C174.591 34.0815 175.892 34.4003 176.895 35.0381C177.899 35.6405 178.682 36.4554 179.247 37.4829C179.811 38.5105 180.203 39.6797 180.422 40.9907C180.642 42.3017 180.751 43.6481 180.751 45.0299V62.4093Z"/><path fill="#1C2922" d="M193.754 62.9408C191.215 62.9408 189.287 62.0195 187.97 60.1771C186.654 58.3346 185.995 55.6064 185.995 51.9923V34.5598H192.297V50.451C192.297 54.7383 193.66 56.8819 196.388 56.8819C197.61 56.8819 198.786 56.4744 199.914 55.6595C201.074 54.8091 202.015 53.5336 202.736 51.8329V34.5598H209.037V54.2245C209.037 54.9686 209.147 55.5001 209.366 55.819C209.617 56.1378 210.009 56.315 210.542 56.3504V62.4093C209.915 62.551 209.382 62.6396 208.943 62.675C208.536 62.7105 208.159 62.7282 207.815 62.7282C206.686 62.7282 205.761 62.4447 205.04 61.8778C204.35 61.2755 203.943 60.4605 203.817 59.433L203.676 57.2008C202.579 59.1141 201.168 60.5491 199.444 61.5058C197.72 62.4624 195.823 62.9408 193.754 62.9408Z"/><path fill="#1C2922" d="M229.312 62.9408C227.431 62.9408 225.754 62.4624 224.281 61.5058C222.807 60.5491 221.647 59.2381 220.801 57.5728V62.4093H215.299V23.6113H221.6V39.4494C222.478 37.7487 223.622 36.4377 225.033 35.5165C226.475 34.5598 228.152 34.0815 230.065 34.0815C231.663 34.0815 233.121 34.4712 234.438 35.2507C235.755 36.0302 236.883 37.0755 237.824 38.3864C238.795 39.6974 239.532 41.2387 240.034 43.0103C240.567 44.7819 240.833 46.6421 240.833 48.5908C240.833 50.6105 240.535 52.4884 239.94 54.2245C239.375 55.9607 238.576 57.4843 237.542 58.7952C236.507 60.0708 235.284 61.0806 233.874 61.8247C232.463 62.5687 230.942 62.9408 229.312 62.9408ZM227.572 56.8819C228.576 56.8819 229.5 56.6693 230.347 56.2441C231.193 55.7835 231.914 55.1812 232.51 54.4371C233.106 53.693 233.56 52.825 233.874 51.8329C234.218 50.8408 234.391 49.7778 234.391 48.644C234.391 47.5102 234.234 46.4295 233.921 45.402C233.607 44.3744 233.153 43.4709 232.557 42.6914C231.993 41.9119 231.319 41.2919 230.535 40.8312C229.751 40.3706 228.889 40.1403 227.949 40.1403C226.538 40.1403 225.268 40.6718 224.14 41.7348C223.042 42.7623 222.196 44.0378 221.6 45.5614V52.2049C221.82 52.9135 222.133 53.5513 222.541 54.1182C222.98 54.6851 223.466 55.1812 223.999 55.6064C224.531 55.9961 225.111 56.315 225.738 56.563C226.365 56.7756 226.977 56.8819 227.572 56.8819Z"/></svg>